<svg width="20" height="20" viewBox="0 0 20 20" fill="none" xmlns="http://www.w3.org/2000/svg">
<path d="M15.2053 13.2304C14.5519 12.5853 13.7362 12.5853 13.087 13.2304C12.5917 13.7215 12.0965 14.2126 11.6095 14.712C11.4764 14.8493 11.364 14.8785 11.2017 14.7869C10.8812 14.6121 10.54 14.4706 10.232 14.2792C8.79616 13.3761 7.5934 12.2149 6.52797 10.9081C5.99942 10.2589 5.52914 9.56385 5.20035 8.78143C5.13377 8.62328 5.14625 8.51924 5.27527 8.39022C5.77052 7.91161 6.25329 7.42052 6.74022 6.92943C7.4186 6.24689 7.4186 5.44782 6.73606 4.76112C6.34901 4.36991 5.96197 3.98703 5.57492 3.59582C5.17538 3.19628 4.78001 2.79259 4.37632 2.39721C3.72291 1.76046 2.9072 1.76046 2.25795 2.40138C1.75854 2.89247 1.27993 3.39605 0.772188 3.87882C0.301903 4.32413 0.0646799 4.86933 0.0147382 5.50609C-0.0643362 6.54238 0.189534 7.5204 0.54745 8.47346C1.27993 10.4462 2.39529 12.1983 3.74788 13.8047C5.57492 15.9772 7.75571 17.696 10.3069 18.9362C11.4556 19.4939 12.6458 19.9226 13.9402 19.9933C14.8308 20.0433 15.6049 19.8185 16.225 19.1235C16.6495 18.6491 17.1281 18.2163 17.5776 17.7626C18.2435 17.0884 18.2476 16.2727 17.5859 15.6068C16.7952 14.8119 16.0003 14.0211 15.2053 13.2304Z" fill="#5B6987"/>
<path d="M14.4103 9.91343L15.946 9.65123C15.7047 8.24038 15.0388 6.9627 14.0274 5.94722C12.9579 4.87763 11.6053 4.20342 10.1153 3.99533L9.89893 5.53936C11.0517 5.70167 12.1005 6.2219 12.9287 7.0501C13.7111 7.83252 14.223 8.82303 14.4103 9.91343Z" fill="#5B6987"/>
<path d="M16.8117 3.23789C15.0388 1.46496 12.7956 0.34543 10.3193 0L10.1029 1.54403C12.2421 1.84368 14.1815 2.81338 15.713 4.34077C17.1655 5.79324 18.1186 7.6286 18.464 9.64708L19.9997 9.38488C19.596 7.04595 18.4931 4.92342 16.8117 3.23789Z" fill="#5B6987"/>
</svg>
