<svg width="94" height="94" viewBox="0 0 94 94" fill="none" xmlns="http://www.w3.org/2000/svg">
<circle cx="47" cy="47" r="47" fill="#1072FF"/>
<path d="M64.284 29.7201V24H28.7159V29.7195H30.4587V32.2216H28.7159V37.9412H64.284V32.2216H62.2734V29.7195H64.284V29.7201ZM35.0598 35.5978H32.5875V33.1792H35.0598V35.5978ZM35.0598 32.1474H32.5875V29.7291H35.0598V32.1474ZM35.0598 28.7611H32.5875V26.3427H35.0598V28.7611ZM38.7148 35.5978H36.2428V33.1792H38.7148V35.5978ZM38.7148 32.1474H36.2428V29.7291H38.7148V32.1474ZM38.7148 28.7611H36.2428V26.3427H38.7148V28.7611ZM42.3158 35.5978H39.8439V33.1792H42.3158V35.5978ZM42.3158 32.1474H39.8439V29.7291H42.3158V32.1474ZM42.3158 28.7611H39.8439V26.3427H42.3158V28.7611ZM45.88 35.5978H43.4078V33.1792H45.88V35.5978ZM45.88 32.1474H43.4078V29.7291H45.88V32.1474ZM45.88 28.7611H43.4078V26.3427H45.88V28.7611ZM49.5347 35.5978H47.0629V33.1792H49.5347V35.5978ZM49.5347 32.1474H47.0629V29.7291H49.5347V32.1474ZM49.5347 28.7611H47.0629V26.3427H49.5347V28.7611ZM53.1356 35.5978H50.6635V33.1792H53.1356V35.5978ZM53.1356 32.1474H50.6635V29.7291H53.1356V32.1474ZM53.1356 28.7611H50.6635V26.3427H53.1356V28.7611ZM58.6669 35.5283H55.4749V34.0534H58.6669V35.5283ZM57.0589 31.3882C55.6512 31.3882 54.5108 30.2476 54.5108 28.8417C54.5108 27.4358 55.6512 26.2948 57.0589 26.2948C58.4651 26.2948 59.6057 27.4352 59.6057 28.8417C59.6056 30.2482 58.4657 31.3882 57.0589 31.3882ZM58.6669 28.8257C58.6669 29.7073 57.9527 30.4221 57.0714 30.4221C56.1897 30.4221 55.475 29.7073 55.475 28.8257C55.475 27.9445 56.1897 27.2303 57.0714 27.2303C57.9527 27.2303 58.6669 27.9445 58.6669 28.8257ZM28.7159 45.3921H30.4587V47.8941H28.7159V53.6139H64.284V47.8936H62.2734V45.3921H64.284V39.6726H28.7159V45.3921ZM58.6669 51.2006H55.4749V49.7258H58.6669V51.2006ZM57.0589 41.9674C58.4651 41.9674 59.6057 43.108 59.6057 44.5139C59.6057 45.9204 58.4657 47.0607 57.0589 47.0607C55.6512 47.0607 54.5108 45.9205 54.5108 44.5139C54.5118 43.1081 55.6512 41.9674 57.0589 41.9674ZM50.6635 42.0147H53.1356V44.4339H50.6635V42.0147ZM50.6635 45.4011H53.1356V47.8202H50.6635V45.4011ZM50.6635 48.8523H53.1356V51.2712H50.6635V48.8523ZM47.0629 42.0147H49.5347V44.4339H47.0629V42.0147ZM47.0629 45.4011H49.5347V47.8202H47.0629V45.4011ZM47.0629 48.8523H49.5347V51.2712H47.0629V48.8523ZM43.4077 42.0147H45.8799V44.4339H43.4077V42.0147ZM43.4077 45.4011H45.8799V47.8202H43.4077V45.4011ZM43.4077 48.8523H45.8799V51.2712H43.4077V48.8523ZM39.8439 42.0147H42.3158V44.4339H39.8439V42.0147ZM39.8439 45.4011H42.3158V47.8202H39.8439V45.4011ZM39.8439 48.8523H42.3158V51.2712H39.8439V48.8523ZM36.2421 42.0147H38.7143V44.4339H36.2421V42.0147ZM36.2421 45.4011H38.7143V47.8202H36.2421V45.4011ZM36.2421 48.8523H38.7143V51.2712H36.2421V48.8523ZM32.5875 42.0147H35.0598V44.4339H32.5875V42.0147ZM32.5875 45.4011H35.0598V47.8202H32.5875V45.4011ZM32.5875 48.8523H35.0598V51.2712H32.5875V48.8523ZM55.4749 44.4983C55.4749 43.6171 56.1896 42.9031 57.0713 42.9031C57.9526 42.9031 58.6668 43.6171 58.6668 44.4983C58.6668 45.3793 57.9526 46.0947 57.0713 46.0947C56.1897 46.0941 55.4749 45.3794 55.4749 44.4983ZM28.7159 60.778H30.4587V63.2804H28.7159V68.9999H64.284V63.2804H62.2734V60.778H64.284V55.0586H28.7159V60.778ZM58.6669 66.5864H55.4749V65.1123H58.6669V66.5864ZM57.0589 57.3535C58.4651 57.3535 59.6057 58.4939 59.6057 59.9006C59.6057 61.3063 58.4657 62.4478 57.0589 62.4478C55.6512 62.4478 54.5108 61.3075 54.5108 59.9006C54.5118 58.494 55.6512 57.3535 57.0589 57.3535ZM50.6635 57.4016H53.1356V59.8204H50.6635V57.4016ZM50.6635 60.7874H53.1356V63.2056H50.6635V60.7874ZM50.6635 64.2382H53.1356V66.6565H50.6635V64.2382ZM47.0629 57.4016H49.5347V59.8204H47.0629V57.4016ZM47.0629 60.7874H49.5347V63.2056H47.0629V60.7874ZM47.0629 64.2382H49.5347V66.6565H47.0629V64.2382ZM43.4077 57.4016H45.8799V59.8204H43.4077V57.4016ZM43.4077 60.7874H45.8799V63.2056H43.4077V60.7874ZM43.4077 64.2382H45.8799V66.6565H43.4077V64.2382ZM39.8439 57.4016H42.3158V59.8204H39.8439V57.4016ZM39.8439 60.7874H42.3158V63.2056H39.8439V60.7874ZM39.8439 64.2382H42.3158V66.6565H39.8439V64.2382ZM36.2421 57.4016H38.7143V59.8204H36.2421V57.4016ZM36.2421 60.7874H38.7143V63.2056H36.2421V60.7874ZM36.2421 64.2382H38.7143V66.6565H36.2421V64.2382ZM32.5875 57.4016H35.0598V59.8204H32.5875V57.4016ZM32.5875 60.7874H35.0598V63.2056H32.5875V60.7874ZM32.5875 64.2382H35.0598V66.6565H32.5875V64.2382ZM55.4749 59.8843C55.4749 59.0032 56.1896 58.2897 57.0713 58.2897C57.9526 58.2897 58.6668 59.0032 58.6668 59.8843C58.6668 60.7655 57.9526 61.4807 57.0713 61.4807C56.1897 61.4807 55.4749 60.7655 55.4749 59.8843Z" fill="white"/>
</svg>
