<svg width="94" height="94" viewBox="0 0 94 94" fill="none" xmlns="http://www.w3.org/2000/svg">
<circle cx="47" cy="47" r="47" fill="#1072FF"/>
<path d="M60.3652 25.4062H26V35.9531H60.3652V25.4062ZM33.998 33.3164H31.3613V30.6797H33.998V33.3164ZM39.2715 33.3164H36.6348V30.6797H39.2715V33.3164ZM44.5449 33.3164H41.9082V30.6797H44.5449V33.3164Z" fill="white"/>
<path d="M55.0918 43.8633C56.9861 43.8633 58.7949 44.3765 60.3652 45.2853V38.5898H26V46.5H48.1462C50.0287 44.8482 52.4708 43.8633 55.0918 43.8633ZM33.998 43.8633H31.3613V41.2266H33.998V43.8633ZM39.2715 43.8633H36.6348V41.2266H39.2715V43.8633ZM44.5449 43.8633H41.9082V41.2266H44.5449V43.8633Z" fill="white"/>
<path d="M40.0607 54.6278C41.1305 52.2138 43.1956 50.3598 45.7242 49.5629C45.8012 49.414 45.8998 49.2809 45.9834 49.1367H26V59.6836H34.4517C35.3388 57.1824 37.4489 55.2551 40.0607 54.6278ZM36.6348 51.7734H39.2715V54.4102H36.6348V51.7734ZM33.998 54.4102H31.3613V51.7734H33.998V54.4102Z" fill="white"/>
<path fill-rule="evenodd" clip-rule="evenodd" d="M62.55 51.7734H63.002C67.3639 51.7734 71 55.3217 71 59.6836C71 64.0455 67.3639 67.5938 63.002 67.5938H41.9082C38.9998 67.5938 36.6348 65.2287 36.6348 62.3203C36.6348 59.4119 38.9998 57.0469 41.9082 57.0469H42.0408C42.5957 54.3265 44.832 52.2086 47.6129 51.8327C48.697 48.69 51.6942 46.5 55.0918 46.5C58.4675 46.5 61.4493 48.6617 62.55 51.7734ZM50.3384 62.4456L49.1059 60.3107C48.959 60.0562 49.0121 59.7335 49.2327 59.5396L50.6711 58.2755C50.6656 58.1799 50.6628 58.084 50.6628 57.9885C50.6628 57.893 50.6656 57.7971 50.6711 57.7015L49.2327 56.4374C49.0121 56.2435 48.959 55.9208 49.1059 55.6664L50.3384 53.5314C50.4854 53.277 50.7915 53.1617 51.0696 53.2558L52.8834 53.8694C53.0437 53.7637 53.2098 53.6676 53.3809 53.5815L53.7562 51.7047C53.8138 51.4167 54.0668 51.2093 54.3606 51.2093H56.8257C57.1195 51.2093 57.3725 51.4167 57.4301 51.7047L57.8054 53.5815C57.9765 53.6676 58.1427 53.7637 58.3029 53.8694L60.1166 53.2558C60.3948 53.1616 60.7009 53.277 60.8478 53.5314L62.0803 55.6664C62.2272 55.9208 62.1741 56.2435 61.9535 56.4374L60.5151 57.7015C60.5207 57.7972 60.5235 57.8931 60.5235 57.9885C60.5235 58.0839 60.5207 58.1797 60.5151 58.2755L61.9536 59.5396C62.1742 59.7335 62.2273 60.0562 62.0804 60.3106L60.8478 62.4456C60.701 62.7 60.3949 62.8153 60.1166 62.7212L58.3029 62.1076C58.1426 62.2133 57.9765 62.3094 57.8054 62.3955L57.4301 64.2723C57.3725 64.5603 57.1195 64.7677 56.8257 64.7677H54.3606C54.0668 64.7677 53.8138 64.5603 53.7562 64.2723L53.3809 62.3955C53.2098 62.3094 53.0436 62.2133 52.8833 62.1076L51.0696 62.7212C50.7914 62.8153 50.4854 62.7 50.3384 62.4456ZM58.0583 57.9885C58.0583 56.6292 56.9524 55.5233 55.5931 55.5233C54.2338 55.5233 53.128 56.6292 53.128 57.9885C53.128 59.3478 54.2338 60.4537 55.5931 60.4537C56.9524 60.4537 58.0583 59.3478 58.0583 57.9885Z" fill="white"/>
</svg>
