<svg width="94" height="94" viewBox="0 0 94 94" fill="none" xmlns="http://www.w3.org/2000/svg">
<circle cx="47" cy="47" r="47" fill="#1072FF"/>
<path d="M32.1641 38.8438H61.8359V41.0234H32.1641V38.8438Z" fill="white"/>
<path d="M32.1641 52.9766H61.8359V55.1562H32.1641V52.9766Z" fill="white"/>
<path d="M61.8359 29H32.1641C30.9991 29 30.0547 29.9444 30.0547 31.1094V34.625C30.0547 35.79 30.9991 36.7344 32.1641 36.7344H61.8359C63.0009 36.7344 63.9453 35.79 63.9453 34.625V31.1094C63.9453 29.9444 63.0009 29 61.8359 29ZM41.375 33.9219H34.3438C33.7613 33.9219 33.2891 33.4497 33.2891 32.8672C33.2891 32.2847 33.7613 31.8125 34.3438 31.8125H41.375C41.9575 31.8125 42.4297 32.2847 42.4297 32.8672C42.4297 33.4497 41.9575 33.9219 41.375 33.9219ZM48.4062 33.9219H45.5938C45.0113 33.9219 44.5391 33.4497 44.5391 32.8672C44.5391 32.2847 45.0113 31.8125 45.5938 31.8125H48.4062C48.9887 31.8125 49.4609 32.2847 49.4609 32.8672C49.4609 33.4497 48.9887 33.9219 48.4062 33.9219ZM55.4375 33.9219C54.855 33.9219 54.3828 33.4497 54.3828 32.8672C54.3828 32.2847 54.855 31.8125 55.4375 31.8125C56.02 31.8125 56.4922 32.2847 56.4922 32.8672C56.4922 33.4497 56.02 33.9219 55.4375 33.9219ZM59.6562 33.9219C59.0738 33.9219 58.6016 33.4497 58.6016 32.8672C58.6016 32.2847 59.0738 31.8125 59.6562 31.8125C60.2387 31.8125 60.7109 32.2847 60.7109 32.8672C60.7109 33.4497 60.2387 33.9219 59.6562 33.9219Z" fill="white"/>
<path d="M61.8359 43.1328H32.1641C30.9991 43.1328 30.0547 44.0772 30.0547 45.2422V48.7578C30.0547 49.9228 30.9991 50.8672 32.1641 50.8672H61.8359C63.0009 50.8672 63.9453 49.9228 63.9453 48.7578V45.2422C63.9453 44.0772 63.0009 43.1328 61.8359 43.1328ZM41.375 48.0547H34.3438C33.7613 48.0547 33.2891 47.5825 33.2891 47C33.2891 46.4175 33.7613 45.9453 34.3438 45.9453H41.375C41.9575 45.9453 42.4297 46.4175 42.4297 47C42.4297 47.5825 41.9575 48.0547 41.375 48.0547ZM48.4062 48.0547H45.5938C45.0113 48.0547 44.5391 47.5825 44.5391 47C44.5391 46.4175 45.0113 45.9453 45.5938 45.9453H48.4062C48.9887 45.9453 49.4609 46.4175 49.4609 47C49.4609 47.5825 48.9887 48.0547 48.4062 48.0547ZM55.4375 48.0547C54.855 48.0547 54.3828 47.5825 54.3828 47C54.3828 46.4175 54.855 45.9453 55.4375 45.9453C56.02 45.9453 56.4922 46.4175 56.4922 47C56.4922 47.5825 56.02 48.0547 55.4375 48.0547ZM59.6562 48.0547C59.0738 48.0547 58.6016 47.5825 58.6016 47C58.6016 46.4175 59.0738 45.9453 59.6562 45.9453C60.2387 45.9453 60.7109 46.4175 60.7109 47C60.7109 47.5825 60.2387 48.0547 59.6562 48.0547Z" fill="white"/>
<path d="M61.8359 57.2656H32.1641C30.9991 57.2656 30.0547 58.21 30.0547 59.375V62.8906C30.0547 64.0556 30.9991 65 32.1641 65H61.8359C63.0009 65 63.9453 64.0556 63.9453 62.8906V59.375C63.9453 58.21 63.0009 57.2656 61.8359 57.2656ZM41.375 62.1875H34.3438C33.7613 62.1875 33.2891 61.7153 33.2891 61.1328C33.2891 60.5503 33.7613 60.0781 34.3438 60.0781H41.375C41.9575 60.0781 42.4297 60.5503 42.4297 61.1328C42.4297 61.7153 41.9575 62.1875 41.375 62.1875ZM48.4062 62.1875H45.5938C45.0113 62.1875 44.5391 61.7153 44.5391 61.1328C44.5391 60.5503 45.0113 60.0781 45.5938 60.0781H48.4062C48.9887 60.0781 49.4609 60.5503 49.4609 61.1328C49.4609 61.7153 48.9887 62.1875 48.4062 62.1875ZM55.4375 62.1875C54.855 62.1875 54.3828 61.7153 54.3828 61.1328C54.3828 60.5503 54.855 60.0781 55.4375 60.0781C56.02 60.0781 56.4922 60.5503 56.4922 61.1328C56.4922 61.7153 56.02 62.1875 55.4375 62.1875ZM59.6562 62.1875C59.0738 62.1875 58.6016 61.7153 58.6016 61.1328C58.6016 60.5503 59.0738 60.0781 59.6562 60.0781C60.2387 60.0781 60.7109 60.5503 60.7109 61.1328C60.7109 61.7153 60.2387 62.1875 59.6562 62.1875Z" fill="white"/>
</svg>
